<?xml version="1.0" standalone="no"?>
<!DOCTYPE svg PUBLIC "-//W3C//DTD SVG 20010904//EN"
 "http://www.w3.org/TR/2001/REC-SVG-20010904/DTD/svg10.dtd">
<svg version="1.0" xmlns="http://www.w3.org/2000/svg"
 width="512.000000pt" height="512.000000pt" viewBox="0 0 512.000000 512.000000"
 preserveAspectRatio="xMidYMid meet">

<g transform="translate(0.000000,512.000000) scale(0.100000,-0.100000)"
fill="#000000" stroke="none">
<path d="M2325 5109 c-386 -39 -756 -161 -1083 -356 -336 -200 -675 -539 -875
-875 -237 -397 -367 -865 -367 -1318 0 -453 130 -921 367 -1318 200 -336 539
-675 875 -875 397 -237 865 -367 1318 -367 453 0 921 130 1318 367 336 200
675 539 875 875 237 397 367 865 367 1318 0 453 -130 921 -367 1318 -200 336
-539 675 -875 875 -405 241 -876 370 -1337 366 -75 -1 -172 -5 -216 -10z
m-470 -1839 l-1060 -1060 -175 175 -175 175 1060 1060 1060 1060 175 -175 175
-175 -1060 -1060z m2298 -533 l177 178 177 -178 178 -177 -1060 -1060 -1060
-1060 -707 707 -708 708 530 530 530 530 530 -530 530 -530 175 175 175 175
-530 530 -530 530 177 178 178 177 530 -530 530 -530 178 177z"/>
</g>
</svg>
